<mxfile host="app.diagrams.net" modified="2021-07-16T16:10:39.650Z" agent="5.0 (X11; Linux x86_64) AppleWebKit/537.36 (KHTML, like Gecko) Chrome/91.0.4472.114 Safari/537.36" etag="rg3PkTMTmOrUKQC9QPb4" version="14.8.6" type="github">
  <diagram id="HYuLJ-ym9R1XKDQ6_qAn" name="Page-1">
    <mxGraphModel dx="968" dy="782" grid="1" gridSize="10" guides="1" tooltips="1" connect="1" arrows="1" fold="1" page="1" pageScale="1" pageWidth="100" pageHeight="100" math="0" shadow="0">
      <root>
        <mxCell id="0" />
        <mxCell id="1" parent="0" />
        <mxCell id="Nr82PkmJTxqg345CKWqP-1" value="Client Identifier Builder" style="rounded=0;whiteSpace=wrap;html=1;" parent="1" vertex="1">
          <mxGeometry y="10" width="120" height="60" as="geometry" />
        </mxCell>
        <mxCell id="Nr82PkmJTxqg345CKWqP-2" value="Rate Limiter" style="rounded=0;whiteSpace=wrap;html=1;" parent="1" vertex="1">
          <mxGeometry x="160" y="10" width="120" height="60" as="geometry" />
        </mxCell>
        <mxCell id="Nr82PkmJTxqg345CKWqP-3" value="Throttle Rules Retriever" style="rounded=1;whiteSpace=wrap;html=1;" parent="1" vertex="1">
          <mxGeometry x="150" y="-160" width="120" height="60" as="geometry" />
        </mxCell>
        <mxCell id="Nr82PkmJTxqg345CKWqP-4" value="Throttle Rules Cache" style="rounded=1;whiteSpace=wrap;html=1;" parent="1" vertex="1">
          <mxGeometry x="-20" y="-160" width="120" height="60" as="geometry" />
        </mxCell>
        <mxCell id="Nr82PkmJTxqg345CKWqP-5" value="Rules Service" style="rounded=1;whiteSpace=wrap;html=1;" parent="1" vertex="1">
          <mxGeometry x="300" y="-160" width="120" height="60" as="geometry" />
        </mxCell>
        <mxCell id="Nr82PkmJTxqg345CKWqP-7" value="RulesDB" style="shape=datastore;whiteSpace=wrap;html=1;" parent="1" vertex="1">
          <mxGeometry x="450" y="-160" width="60" height="60" as="geometry" />
        </mxCell>
        <mxCell id="Nr82PkmJTxqg345CKWqP-8" value="" style="endArrow=classic;startArrow=classic;html=1;exitX=1;exitY=0.5;exitDx=0;exitDy=0;entryX=0;entryY=0.5;entryDx=0;entryDy=0;" parent="1" source="Nr82PkmJTxqg345CKWqP-5" target="Nr82PkmJTxqg345CKWqP-7" edge="1">
          <mxGeometry width="50" height="50" relative="1" as="geometry">
            <mxPoint x="190" y="10" as="sourcePoint" />
            <mxPoint x="240" y="-40" as="targetPoint" />
          </mxGeometry>
        </mxCell>
        <mxCell id="Nr82PkmJTxqg345CKWqP-9" value="Throttled Request Retry Queue" style="shape=process;whiteSpace=wrap;html=1;backgroundOutline=1;" parent="1" vertex="1">
          <mxGeometry x="320" y="120" width="120" height="60" as="geometry" />
        </mxCell>
        <mxCell id="Nr82PkmJTxqg345CKWqP-10" value="Throttled Request Retry Queue" style="shape=process;whiteSpace=wrap;html=1;backgroundOutline=1;" parent="1" vertex="1">
          <mxGeometry x="330" y="130" width="120" height="60" as="geometry" />
        </mxCell>
        <mxCell id="Nr82PkmJTxqg345CKWqP-11" value="Throttled Request Retry Queue" style="shape=process;whiteSpace=wrap;html=1;backgroundOutline=1;" parent="1" vertex="1">
          <mxGeometry x="340" y="140" width="120" height="60" as="geometry" />
        </mxCell>
        <mxCell id="Nr82PkmJTxqg345CKWqP-12" value="" style="endArrow=classic;html=1;" parent="1" source="Nr82PkmJTxqg345CKWqP-2" edge="1">
          <mxGeometry width="50" height="50" relative="1" as="geometry">
            <mxPoint x="120" y="140" as="sourcePoint" />
            <mxPoint x="220" y="100" as="targetPoint" />
          </mxGeometry>
        </mxCell>
        <mxCell id="Nr82PkmJTxqg345CKWqP-13" value="Drop" style="text;html=1;strokeColor=none;fillColor=none;align=center;verticalAlign=middle;whiteSpace=wrap;rounded=0;" parent="1" vertex="1">
          <mxGeometry x="200" y="100" width="40" height="20" as="geometry" />
        </mxCell>
        <mxCell id="Nr82PkmJTxqg345CKWqP-15" value="" style="endArrow=classic;startArrow=classic;html=1;exitX=0.75;exitY=1;exitDx=0;exitDy=0;entryX=0;entryY=0.5;entryDx=0;entryDy=0;" parent="1" source="Nr82PkmJTxqg345CKWqP-2" target="Nr82PkmJTxqg345CKWqP-9" edge="1">
          <mxGeometry width="50" height="50" relative="1" as="geometry">
            <mxPoint x="120" y="140" as="sourcePoint" />
            <mxPoint x="170" y="90" as="targetPoint" />
            <Array as="points">
              <mxPoint x="250" y="150" />
            </Array>
          </mxGeometry>
        </mxCell>
        <mxCell id="Nr82PkmJTxqg345CKWqP-16" value="" style="endArrow=classic;html=1;exitX=0.15;exitY=0.983;exitDx=0;exitDy=0;exitPerimeter=0;" parent="1" source="Nr82PkmJTxqg345CKWqP-2" edge="1">
          <mxGeometry width="50" height="50" relative="1" as="geometry">
            <mxPoint x="120" y="140" as="sourcePoint" />
            <mxPoint x="178" y="90" as="targetPoint" />
          </mxGeometry>
        </mxCell>
        <mxCell id="Nr82PkmJTxqg345CKWqP-17" value="Http Reposne 503" style="text;html=1;strokeColor=none;fillColor=none;align=center;verticalAlign=middle;whiteSpace=wrap;rounded=0;" parent="1" vertex="1">
          <mxGeometry x="150" y="90" width="40" height="20" as="geometry" />
        </mxCell>
        <mxCell id="Nr82PkmJTxqg345CKWqP-18" value="" style="endArrow=classic;startArrow=classic;html=1;entryX=0.5;entryY=0;entryDx=0;entryDy=0;exitX=0.5;exitY=1;exitDx=0;exitDy=0;" parent="1" source="Nr82PkmJTxqg345CKWqP-4" target="Nr82PkmJTxqg345CKWqP-2" edge="1">
          <mxGeometry width="50" height="50" relative="1" as="geometry">
            <mxPoint x="150" y="70" as="sourcePoint" />
            <mxPoint x="200" y="20" as="targetPoint" />
          </mxGeometry>
        </mxCell>
        <mxCell id="Nr82PkmJTxqg345CKWqP-19" value="" style="endArrow=classic;startArrow=classic;html=1;exitX=0.592;exitY=0.983;exitDx=0;exitDy=0;exitPerimeter=0;" parent="1" source="Nr82PkmJTxqg345CKWqP-3" edge="1">
          <mxGeometry width="50" height="50" relative="1" as="geometry">
            <mxPoint x="150" y="70" as="sourcePoint" />
            <mxPoint x="220" y="10" as="targetPoint" />
          </mxGeometry>
        </mxCell>
        <mxCell id="Nr82PkmJTxqg345CKWqP-20" value="" style="endArrow=classic;startArrow=classic;html=1;exitX=1.008;exitY=0.367;exitDx=0;exitDy=0;exitPerimeter=0;" parent="1" source="Nr82PkmJTxqg345CKWqP-3" edge="1">
          <mxGeometry width="50" height="50" relative="1" as="geometry">
            <mxPoint x="150" y="70" as="sourcePoint" />
            <mxPoint x="300" y="-138" as="targetPoint" />
          </mxGeometry>
        </mxCell>
        <mxCell id="Nr82PkmJTxqg345CKWqP-22" value="" style="endArrow=classic;html=1;exitX=1;exitY=0.5;exitDx=0;exitDy=0;entryX=0;entryY=0.5;entryDx=0;entryDy=0;" parent="1" source="Nr82PkmJTxqg345CKWqP-1" target="Nr82PkmJTxqg345CKWqP-2" edge="1">
          <mxGeometry width="50" height="50" relative="1" as="geometry">
            <mxPoint x="150" y="70" as="sourcePoint" />
            <mxPoint x="200" y="20" as="targetPoint" />
          </mxGeometry>
        </mxCell>
        <mxCell id="Nr82PkmJTxqg345CKWqP-23" value="Service owner" style="shape=umlActor;verticalLabelPosition=bottom;verticalAlign=top;html=1;outlineConnect=0;" parent="1" vertex="1">
          <mxGeometry x="600" y="-270" width="30" height="60" as="geometry" />
        </mxCell>
        <mxCell id="Nr82PkmJTxqg345CKWqP-24" value="Rules Console" style="rounded=1;whiteSpace=wrap;html=1;" parent="1" vertex="1">
          <mxGeometry x="300" y="-270" width="120" height="60" as="geometry" />
        </mxCell>
        <mxCell id="Nr82PkmJTxqg345CKWqP-25" value="" style="endArrow=classic;startArrow=classic;html=1;exitX=1;exitY=0.5;exitDx=0;exitDy=0;" parent="1" source="Nr82PkmJTxqg345CKWqP-24" edge="1">
          <mxGeometry width="50" height="50" relative="1" as="geometry">
            <mxPoint x="430" y="-120" as="sourcePoint" />
            <mxPoint x="600" y="-240" as="targetPoint" />
          </mxGeometry>
        </mxCell>
        <mxCell id="Nr82PkmJTxqg345CKWqP-26" value="" style="endArrow=classic;startArrow=classic;html=1;exitX=0.5;exitY=1;exitDx=0;exitDy=0;entryX=0.5;entryY=0;entryDx=0;entryDy=0;" parent="1" source="Nr82PkmJTxqg345CKWqP-24" target="Nr82PkmJTxqg345CKWqP-5" edge="1">
          <mxGeometry width="50" height="50" relative="1" as="geometry">
            <mxPoint x="430" y="-120" as="sourcePoint" />
            <mxPoint x="480" y="-170" as="targetPoint" />
            <Array as="points" />
          </mxGeometry>
        </mxCell>
        <mxCell id="Nr82PkmJTxqg345CKWqP-32" value="Request Processing Services" style="rounded=1;whiteSpace=wrap;html=1;" parent="1" vertex="1">
          <mxGeometry x="460" y="10" width="120" height="60" as="geometry" />
        </mxCell>
        <mxCell id="Nr82PkmJTxqg345CKWqP-33" value="" style="endArrow=classic;startArrow=classic;html=1;exitX=1;exitY=0.5;exitDx=0;exitDy=0;entryX=0;entryY=0.5;entryDx=0;entryDy=0;" parent="1" source="Nr82PkmJTxqg345CKWqP-2" target="Nr82PkmJTxqg345CKWqP-32" edge="1">
          <mxGeometry width="50" height="50" relative="1" as="geometry">
            <mxPoint x="410" y="20" as="sourcePoint" />
            <mxPoint x="460" y="-30" as="targetPoint" />
          </mxGeometry>
        </mxCell>
        <mxCell id="Nr82PkmJTxqg345CKWqP-34" value="Allow Request" style="edgeLabel;html=1;align=center;verticalAlign=middle;resizable=0;points=[];" parent="Nr82PkmJTxqg345CKWqP-33" vertex="1" connectable="0">
          <mxGeometry x="-0.2222" relative="1" as="geometry">
            <mxPoint as="offset" />
          </mxGeometry>
        </mxCell>
        <mxCell id="Nr82PkmJTxqg345CKWqP-35" value="" style="endArrow=classic;html=1;" parent="1" edge="1">
          <mxGeometry width="50" height="50" relative="1" as="geometry">
            <mxPoint x="-80" y="40" as="sourcePoint" />
            <mxPoint y="40" as="targetPoint" />
          </mxGeometry>
        </mxCell>
        <mxCell id="Nr82PkmJTxqg345CKWqP-37" value="" style="endArrow=none;html=1;" parent="1" edge="1">
          <mxGeometry width="50" height="50" relative="1" as="geometry">
            <mxPoint x="-10" y="-10" as="sourcePoint" />
            <mxPoint x="300" y="-10" as="targetPoint" />
          </mxGeometry>
        </mxCell>
        <mxCell id="Nr82PkmJTxqg345CKWqP-38" value="" style="endArrow=none;html=1;" parent="1" edge="1">
          <mxGeometry width="50" height="50" relative="1" as="geometry">
            <mxPoint x="-10" y="90" as="sourcePoint" />
            <mxPoint x="-10" y="-10" as="targetPoint" />
          </mxGeometry>
        </mxCell>
        <mxCell id="Nr82PkmJTxqg345CKWqP-39" value="" style="endArrow=none;html=1;" parent="1" edge="1">
          <mxGeometry width="50" height="50" relative="1" as="geometry">
            <mxPoint x="-10" y="90" as="sourcePoint" />
            <mxPoint x="300" y="90" as="targetPoint" />
          </mxGeometry>
        </mxCell>
        <mxCell id="Nr82PkmJTxqg345CKWqP-40" value="" style="endArrow=none;html=1;" parent="1" edge="1">
          <mxGeometry width="50" height="50" relative="1" as="geometry">
            <mxPoint x="300" y="90" as="sourcePoint" />
            <mxPoint x="300" y="-10" as="targetPoint" />
          </mxGeometry>
        </mxCell>
      </root>
    </mxGraphModel>
  </diagram>
</mxfile>
